HIERARCHY
ROOT hips
{
  OFFSET 0 10.6860622 2.3727825e-15
  CHANNELS 6 Xposition Yposition Zposition Yrotation Xrotation Zrotation
  JOINT leftUpperLeg
  {
    OFFSET 0.6642549969 -0.9402397400000004 0
    CHANNELS 3 Yrotation Xrotation Zrotation
    JOINT leftLowerLeg
    {
      OFFSET 0 -3.997221335632195 0
      CHANNELS 3 Yrotation Xrotation Zrotation
      JOINT leftFoot
      {
        OFFSET -0.13777839790000004 -4.6145792000000005 -0.22186036399999998
        CHANNELS 3 Yrotation Xrotation Zrotation
        JOINT leftToes
        {
          OFFSET -0.03777410834999995 -0.9130806927000008 0.85230013
          CHANNELS 3 Yrotation Xrotation Zrotation
          End Site
          {
            OFFSET -0.03777410834999995 -0.9130806927000008 0.85230013
          }
        }
      }
    }
  }
  JOINT rightUpperLeg
  {
    OFFSET -0.6642778626 -0.9402397400000004 0
    CHANNELS 3 Yrotation Xrotation Zrotation
    JOINT rightLowerLeg
    {
      OFFSET 0 -3.997221452859387 0
      CHANNELS 3 Yrotation Xrotation Zrotation
      JOINT rightFoot
      {
        OFFSET 0.1377926176 -4.6145792000000005 -0.22185782299999995
        CHANNELS 3 Yrotation Xrotation Zrotation
        JOINT rightToes
        {
          OFFSET 0.037780746850000047 -0.9130806927000008 0.85230167
          CHANNELS 3 Yrotation Xrotation Zrotation
          End Site
          {
            OFFSET 0.037780746850000047 -0.9130806927000008 0.85230167
          }
        }
      }
    }
  }
  JOINT spine
  {
    OFFSET 0 0.13988381660000015 0
    CHANNELS 3 Yrotation Xrotation Zrotation
    JOINT chest
    {
      OFFSET 0 0.6191039003973773 0
      CHANNELS 3 Yrotation Xrotation Zrotation
      JOINT upperChest
      {
        OFFSET 0 0.9855186130586943 0
        CHANNELS 3 Yrotation Xrotation Zrotation
        JOINT leftShoulder
        {
          OFFSET 0.1807663869 1.5087829790000005 0
          CHANNELS 3 Yrotation Xrotation Zrotation
          JOINT leftUpperArm
          {
            OFFSET 0.5985063006419806 0 0
            CHANNELS 3 Yrotation Xrotation Zrotation
            JOINT leftLowerArm
            {
              OFFSET 2.2993332369501065 0 0
              CHANNELS 3 Yrotation Xrotation Zrotation
              JOINT leftHand
              {
                OFFSET 2.395047042602395 0 0
                CHANNELS 3 Yrotation Xrotation Zrotation
                JOINT leftIndexProximal
                {
                  OFFSET 0.5766295810000004 0.04556643899499946 0.17265095988184
                  CHANNELS 3 Yrotation Xrotation Zrotation
                  JOINT leftIndexIntermediate
                  {
                    OFFSET 0.2957229000000008 -0.019352197700001517 -0.007932640616999987
                    CHANNELS 3 Yrotation Xrotation Zrotation
                    JOINT leftIndexDistal
                    {
                      OFFSET 0.19008243099999922 -0.012484908149998475 -0.002786250786000012
                      CHANNELS 3 Yrotation Xrotation Zrotation
                      End Site
                      {
                        OFFSET 0.19008243099999922 -0.012484908149998475 -0.002786250786000012
                      }
                    }
                  }
                }
                JOINT leftMiddleProximal
                {
                  OFFSET 0.5834975091000001 0.0524350405149987 0.02204081888183999
                  CHANNELS 3 Yrotation Xrotation Zrotation
                  JOINT leftMiddleIntermediate
                  {
                    OFFSET 0.33880573540000003 -0.019871473270000717 -0.00000971183179999946
                    CHANNELS 3 Yrotation Xrotation Zrotation
                    JOINT leftMiddleDistal
                    {
                      OFFSET 0.20676022730000088 -0.012221336379999448 0.0001471936708000235
                      CHANNELS 3 Yrotation Xrotation Zrotation
                      End Site
                      {
                        OFFSET 0.20676022730000088 -0.012221336379999448 0.0001471936708000235
                      }
                    }
                  }
                }
                JOINT leftLittleProximal
                {
                  OFFSET 0.5344154683999995 -0.012880921405001189 -0.24414037221816004
                  CHANNELS 3 Yrotation Xrotation Zrotation
                  JOINT leftLittleIntermediate
                  {
                    OFFSET 0.21758961730000093 -0.011650919939999227 0.011893592810000034
                    CHANNELS 3 Yrotation Xrotation Zrotation
                    JOINT leftLittleDistal
                    {
                      OFFSET 0.1475273964999999 -0.008152365682999818 0.006001092492999946
                      CHANNELS 3 Yrotation Xrotation Zrotation
                      End Site
                      {
                        OFFSET 0.1475273964999999 -0.008152365682999818 0.006001092492999946
                      }
                    }
                  }
                }
                JOINT leftRingProximal
                {
                  OFFSET 0.5799399463000003 0.026911854694997794 -0.12150566991816003
                  CHANNELS 3 Yrotation Xrotation Zrotation
                  JOINT leftRingIntermediate
                  {
                    OFFSET 0.26167887460000006 -0.013480186499999602 0.010996293000000053
                    CHANNELS 3 Yrotation Xrotation Zrotation
                    JOINT leftRingDistal
                    {
                      OFFSET 0.17667108799999987 -0.008990287899999228 0.0055541023999999065
                      CHANNELS 3 Yrotation Xrotation Zrotation
                      End Site
                      {
                        OFFSET 0.17667108799999987 -0.008990287899999228 0.0055541023999999065
                      }
                    }
                  }
                }
                JOINT leftThumbProximal
                {
                  OFFSET 0.11018806699999972 -0.09448718900500053 0.17047963138184
                  CHANNELS 3 Yrotation Xrotation Zrotation
                  JOINT leftThumbIntermediate
                  {
                    OFFSET 0.31062601459999983 -0.08126270900000132 0.15443142000000007
                    CHANNELS 3 Yrotation Xrotation Zrotation
                    JOINT leftThumbDistal
                    {
                      OFFSET 0.21627175790000086 -0.08833193599999878 0.018771167799999988
                      CHANNELS 3 Yrotation Xrotation Zrotation
                      End Site
                      {
                        OFFSET 0.21627175790000086 -0.08833193599999878 0.018771167799999988
                      }
                    }
                  }
                }
              }
            }
          }
        }
        JOINT neck
        {
          OFFSET 0 1.5463305265074576 0
          CHANNELS 3 Yrotation Xrotation Zrotation
          JOINT head
          {
            OFFSET 0 0.8456443600000344 0
            CHANNELS 3 Yrotation Xrotation Zrotation
            JOINT leftEye
            {
              OFFSET 0.30408573140000006 0.5104519199999995 0.1276382305
              CHANNELS 3 Yrotation Xrotation Zrotation
              End Site
              {
                OFFSET 0.30408573140000006 0.5104519199999995 0.1276382305
              }
            }
            JOINT rightEye
            {
              OFFSET -0.30409491089999996 0.5104519199999995 0.1276379445
              CHANNELS 3 Yrotation Xrotation Zrotation
              End Site
              {
                OFFSET -0.30409491089999996 0.5104519199999995 0.1276379445
              }
            }
            JOINT jaw
            {
              OFFSET -3.155239131000001e-7 -0.11984121820000082 0.60178107
              CHANNELS 3 Yrotation Xrotation Zrotation
              End Site
              {
                OFFSET -3.155239131000001e-7 -0.11984121820000082 0.60178107
              }
            }
          }
        }
        JOINT rightShoulder
        {
          OFFSET -0.1807303465 1.5087829790000005 0
          CHANNELS 3 Yrotation Xrotation Zrotation
          JOINT rightUpperArm
          {
            OFFSET -0.5985063796536958 0 0
            CHANNELS 3 Yrotation Xrotation Zrotation
            JOINT rightLowerArm
            {
              OFFSET -2.2993322059002854 0 0
              CHANNELS 3 Yrotation Xrotation Zrotation
              JOINT rightHand
              {
                OFFSET -2.395045314457259 0 0
                CHANNELS 3 Yrotation Xrotation Zrotation
                JOINT rightIndexProximal
                {
                  OFFSET -0.5764487688300002 0.0441371204405987 0.17361932004999997
                  CHANNELS 3 Yrotation Xrotation Zrotation
                  JOINT rightIndexIntermediate
                  {
                    OFFSET -0.29573011380000047 -0.01934826376999843 -0.007698921482999974
                    CHANNELS 3 Yrotation Xrotation Zrotation
                    JOINT rightIndexDistal
                    {
                      OFFSET -0.19008373999999884 -0.012503266380000655 -0.0026365778999999897
                      CHANNELS 3 Yrotation Xrotation Zrotation
                      End Site
                      {
                        OFFSET -0.19008373999999884 -0.012503266380000655 -0.0026365778999999897
                      }
                    }
                  }
                }
                JOINT rightMiddleProximal
                {
                  OFFSET -0.5834852037300005 0.05211639405060153 0.02307162440000001
                  CHANNELS 3 Yrotation Xrotation Zrotation
                  JOINT rightMiddleIntermediate
                  {
                    OFFSET -0.33880114510000003 -0.019952774050000954 0.0002455003561999819
                    CHANNELS 3 Yrotation Xrotation Zrotation
                    JOINT rightMiddleDistal
                    {
                      OFFSET -0.20675694929999955 -0.012273788999999091 0.00030209124000002766
                      CHANNELS 3 Yrotation Xrotation Zrotation
                      End Site
                      {
                        OFFSET -0.20675694929999955 -0.012273788999999091 0.00030209124000002766
                      }
                    }
                  }
                }
                JOINT rightLittleProximal
                {
                  OFFSET -0.5346811737299992 -0.011214256288399227 -0.24363941305000003
                  CHANNELS 3 Yrotation Xrotation Zrotation
                  JOINT rightLittleIntermediate
                  {
                    OFFSET -0.21757715980000092 -0.011771559690000988 0.01201554387
                    CHANNELS 3 Yrotation Xrotation Zrotation
                    JOINT rightLittleDistal
                    {
                      OFFSET -0.1475201849000004 -0.00822055339600003 0.006082065407000015
                      CHANNELS 3 Yrotation Xrotation Zrotation
                      End Site
                      {
                        OFFSET -0.1475201849000004 -0.00822055339600003 0.006082065407000015
                      }
                    }
                  }
                }
                JOINT rightRingProximal
                {
                  OFFSET -0.5800810755299999 0.027657985680600072 -0.12066365025000003
                  CHANNELS 3 Yrotation Xrotation Zrotation
                  JOINT rightRingIntermediate
                  {
                    OFFSET -0.26166445029999974 -0.013623118409999302 0.011164098990000045
                    CHANNELS 3 Yrotation Xrotation Zrotation
                    JOINT rightRingDistal
                    {
                      OFFSET -0.17666387530000027 -0.009072900100000503 0.005668185599999959
                      CHANNELS 3 Yrotation Xrotation Zrotation
                      End Site
                      {
                        OFFSET -0.17666387530000027 -0.009072900100000503 0.005668185599999959
                      }
                    }
                  }
                }
                JOINT rightThumbProximal
                {
                  OFFSET -0.10997596379000074 -0.09577489355940072 0.16989765924999997
                  CHANNELS 3 Yrotation Xrotation Zrotation
                  JOINT rightThumbIntermediate
                  {
                    OFFSET -0.31036620999999986 -0.08229339117999834 0.15440884469999996
                    CHANNELS 3 Yrotation Xrotation Zrotation
                    JOINT rightThumbDistal
                    {
                      OFFSET -0.21631306399999906 -0.08825326400000111 0.018656797720000014
                      CHANNELS 3 Yrotation Xrotation Zrotation
                      End Site
                      {
                        OFFSET -0.21631306399999906 -0.08825326400000111 0.018656797720000014
                      }
                    }
                  }
                }
              }
            }
          }
        }
      }
    }
  }
}
MOTION
Frames: 9
Frame Time: 0.03333333333333333
0 11.682712981546562 0 0 0 0 0 0 -5.826343164929014 -0.3712483961610101 -3.6333298826370974 5.838118207697276 0 0 0 0 0 0 0 0 5.826343164929014 0.3712483961610101 -3.6333298826370974 -5.838118207697276 0 0 0 0 0 0 0 -4.610651315171937 0 0 3.0831277533083026 0 0 0 0 0 1.5275236235667615 0 0 0 0 0 0 0 0 0 0 0 0 0 0 0 0 0 0 0 0 0 0 0 0 0 0 0 0 0 0 0 0 0 0 0 0 0 0 0 0 0 0 0 0 0 0 0 0 0 0 0 0 0 0 0 0 1.5275236235667615 0 0 0 0 0 0 0 0 0 0 0 0 0 0 1.5275236235667615 0 0 0 0 0 0 0 0 0 0 0 0 0 0 0 0 0 0 0 0 0 0 0 0 0 0 0 0 0 0 0 0 0 0 0 0 0 0 0 0 0 0 0 0 0 0 0 0 0 0 0 0 0 0 0
0.2200886406700369 -6.055218430749016 3.606044481001567 -179.9988723462518 23.001391115375892 0.005581634915737163 13.389117424436256 -46.45752600048049 -2.15611884490336 163.5875353184578 69.6408512421692 166.25634735857463 12.925904468612126 49.373612390120336 -5.6339485741910424 0 0 0 -19.47227696667035 -44.923162123605316 7.571088234496612 -163.54160603205577 70.11644079947041 -165.9337300371599 -19.46600368784253 47.38350002456748 0.6612072301430826 0 0 0 -0.2537435863376423 -13.763507216795439 0.03999237725610245 -0.005633455320334369 34.18390945857872 -0.021826022707829792 0 0 0 6.369552716460163 -11.244109483894459 -33.37781028057275 -34.88027551525906 -16.901090427687606 -17.4477251077248 -51.299384010699335 5.6169062058987205 -58.092015962082094 -22.131112343471735 22.719972816737492 53.75535977339371 0 0 0 0 0 0 0 0 0 0 0 0 0 0 0 0 0 0 0 0 0 0 0 0 0 0 0 0 0 0 0 0 0 0 0 0 0 0 0 0 0 0 0 0 0 0 1.3159496096167222 0 0.0002790099360625251 -0.48784367155136166 -0.06469437608596904 0 0 0 0 0 0 0 0 0 -9.516481020280631 -13.405819410668785 30.992536408267966 36.94658578900608 -18.12818822030663 16.803521223468117 56.05022245609829 -2.9723094659672835 60.55867685941953 23.568946005451558 -37.28979892212285 -50.20439770158119 0 0 0 0 0 0 0 0 0 0 0 0 0 0 0 0 0 0 0 0 0 0 0 0 0 0 0 0 0 0 0 0 0 0 0 0 0 0 0 0 0 0 0 0 0
0.2200886406700369 -6.053157983282199 3.5837402780792176 -179.9989966596169 21.890128337553907 0.005241073095800635 13.042910365395104 -45.02518647148986 -1.7472257501372417 163.34260036524933 69.9471453851607 166.01138759455523 12.925904468612126 49.373612390120336 -5.6339485741910424 0 0 0 -18.945462821184933 -43.536911047513925 6.9897652282415335 -163.28294475817665 70.42137649065178 -165.67716885490665 -19.46600368784253 47.38350002456748 0.6612072301430826 0 0 0 -0.25305127598776883 -13.153121792100853 0.037170375979139844 -0.005377223662391067 32.967951861199985 -0.0218421043595712 0 0 0 4.4734035324870085 -9.877734375015475 -32.50783461365694 -34.88027551525906 -16.901090427687606 -17.4477251077248 -50.76393363441276 6.427220977885986 -57.47609252849312 -22.605452405839817 21.301639006387386 54.692491478553066 0 0 0 0 0 0 0 0 0 0 0 0 0 0 0 0 0 0 0 0 0 0 0 0 0 0 0 0 0 0 0 0 0 0 0 0 0 0 0 0 0 0 0 0 0 0 1.1068096369908091 0 -0.0201088114704905 -0.9661623852995638 -0.12344592647635197 0 0 0 0 0 0 0 0 0 -7.8716121620405834 -11.995704417497903 30.19351296458155 36.94658578900608 -18.128190017038733 16.803522943482903 55.4215774968511 -1.9785192766121231 59.74713998586825 25.217880181132056 -38.305558661295436 -51.007401648582174 0 0 0 0 0 0 0 0 0 0 0 0 0 0 0 0 0 0 0 0 0 0 0 0 0 0 0 0 0 0 0 0 0 0 0 0 0 0 0 0 0 0 0 0 0
0.2200886406700369 -6.051097804207654 3.5614360751568688 -179.99910261214566 20.782236643336734 0.004910408441245206 12.718357810741576 -43.587438051697255 -1.3591609342530637 163.09012095720783 70.2530897141818 165.7588832920371 12.925906919857796 49.37361763504396 -5.633945826856461 0 0 0 -18.44809481845786 -42.143362175934215 6.437170462862983 -163.01619077686604 70.72594736928266 -165.41251730146962 -19.46600368784253 47.38350002456748 0.6612072301430826 0 0 0 -0.25238976307255945 -12.542456568163242 0.03436177472377665 -0.005124404353265772 31.749796547645886 -0.02186548917352836 0 0 0 2.5926162168953444 -8.474001628871859 -31.681758892385936 -34.88027551525906 -16.901090427687606 -17.4477251077248 -50.217999723048884 7.2329606888010165 -56.85056533521007 -23.101901344819368 19.88543562913604 55.636962126976364 0 0 0 0 0 0 0 0 0 0 0 0 0 0 0 0 0 0 0 0 0 0 0 0 0 0 0 0 0 0 0 0 0 0 0 0 0 0 0 0 0 0 0 0 0 0 0.8976155682271681 0 -0.04003753117896888 -1.4451725985727155 -0.18212028702659602 0 0 0 0 0 0 0 0 0 -6.245422830017578 -10.555350323181116 29.435555315341063 36.94659082081351 -18.128191813770858 16.803519503453305 54.77819592812031 -0.9922148239506371 58.923809783864336 26.914407487288777 -39.30580043452784 -51.86229494461054 0 0 0 0 0 0 0 0 0 0 0 0 0 0 0 0 0 0 0 0 0 0 0 0 0 0 0 0 0 0 0 0 0 0 0 0 0 0 0 0 0 0 0 0 0
0.2200886406700369 -6.049037893525379 3.53913187223452 -179.99920563281034 19.672880326564176 0.004582423431912669 12.41373507296357 -42.144845278345294 -0.9901917876833157 162.82973725819895 70.55870810075872 165.49847356985984 12.925904468612126 49.373612390120336 -5.6339485741910424 0 0 0 -17.978027030707082 -40.74325475343815 5.91114957092059 -162.74097340870438 71.03011384594811 -165.1393971051048 -19.46600536867558 47.38350506836555 0.6612067367197524 0 0 0 -0.25176164574027865 -11.931549168742743 0.03156441101226886 -0.004872309163310655 30.529684472998486 -0.02189383593115125 0 0 0 0.7271964558939817 -7.035405548277866 -30.90059993151753 -34.88027551525906 -16.901090427687606 -17.4477251077248 -49.661403020277966 8.033766590191343 -56.215258357397495 -23.620349932263505 18.472572794177147 56.589326523246584 0 0 0 0 0 0 0 0 0 0 0 0 0 0 0 0 0 0 0 0 0 0 0 0 0 0 0 0 0 0 0 0 0 0 0 0 0 0 0 0 0 0 0 0 0 0 0.6883676136370419 0 -0.05950704765769069 -1.924859849235552 -0.24072336608101014 0 0 0 0 0 0 0 0 0 -4.637414336359475 -9.086895312545881 28.71896071338537 36.94659082081351 -18.128190017038733 16.803521223468117 54.11994029463655 -0.014071033600155611 58.08850570027829 28.66022026655986 -40.28854294756103 -52.77082090731868 0 0 0 0 0 0 0 0 0 0 0 0 0 0 0 0 0 0 0 0 0 0 0 0 0 0 0 0 0 0 0 0 0 0 0 0 0 0 0 0 0 0 0 0 0
0.22008890906230819 -6.0469774460585635 3.5168276693121716 -179.99930800098187 18.56227319652941 0.0042562877150999255 12.12751759899424 -40.698001002648695 -0.63877462841174 162.56112479887653 70.86391110838852 165.22983524999455 12.92590319060771 49.373612390120336 -5.6339485741910424 0 0 0 -17.53330652090552 -39.33727608072822 5.4097364374233505 -162.45686910018273 71.33388702233272 -164.85738999178102 -19.46600368784253 47.38350002456748 0.6612072301430826 0 0 0 -0.25116377398477285 -11.320432181201845 0.028780357555984896 -0.004622935123230857 29.30791040160807 -0.021928388100437693 0 0 0 -1.1230114490011942 -5.56457794800584 -30.165268740533577 -34.88027551525906 -16.901090427687606 -17.4477251077248 -49.09406893153697 8.829277029653248 -55.570055842297684 -24.16070150923 17.06431206216625 57.5501497182918 0 0 0 0 0 0 0 0 0 0 0 0 0 0 0 0 0 0 0 0 0 0 0 0 0 0 0 0 0 0 0 0 0 0 0 0 0 0 0 0 0 0 0 0 0 0 0.47906763325987867 0 -0.07851607876752982 -2.4052080716504842 -0.29925823784728445 0 0 0 0 0 0 0 0 0 -3.047003222021215 -7.592567468908928 28.04397788313538 36.94657859727479 -18.128184626842476 16.8035184646166 53.446740212545514 0.9552322260108219 57.241061183975205 30.45695893494101 -41.25174355236751 -53.73467300077912 0 0 0 0 0 0 0 0 0 0 0 0 0 0 0 0 0 0 0 0 0 0 0 0 0 0 0 0 0 0 0 0 0 0 0 0 0 0 0 0 0 0 0 0 0
0.22008890906230819 -6.044916998591746 3.4945231979975513 -179.99939201811173 17.450612249707472 0.003938323737970586 11.858324976734362 -39.247490907118255 -0.3035140655026489 162.28387008599393 71.16871992998423 164.95255758423008 12.925905746616525 49.373612390120336 -5.6339466168459 0 0 0 -17.112182405328568 -37.92613452507187 4.931158521934454 -162.1634733092514 71.6372134840646 -164.5660904583826 -19.46600368784253 47.38350002456748 0.6612072301430826 0 0 0 -0.2505977851266451 -10.709142816075893 0.026007301918732788 -0.004375907987129996 28.08473962800912 -0.02196906540340716 0 0 0 -2.958331137303301 -4.064258496337248 -29.47652664654252 -34.88027551525906 -16.901090427687606 -17.4477251077248 -48.51582466883078 9.619134202155196 -54.91478959892371 -24.722858697022193 15.661899999539168 58.519919155101846 0 0 0 0 0 0 0 0 0 0 0 0 0 0 0 0 0 0 0 0 0 0 0 0 0 0 0 0 0 0 0 0 0 0 0 0 0 0 0 0 0 0 0 0 0 0 0.26971761592734295 0 -0.09706518936987876 -2.886199314739169 -0.3577330453214263 0 0 0 0 0 0 0 0 0 -1.4734864960686733 -6.074633841318171 27.410767395107158 36.94658578900608 -18.12818822030663 16.803521223468117 52.75854783142386 1.9150130860593908 56.38138195203956 32.30616877570401 -42.193267857103194 -54.75546402766008 0 0 0 0 0 0 0 0 0 0 0 0 0 0 0 0 0 0 0 0 0 0 0 0 0 0 0 0 0 0 0 0 0 0 0 0 0 0 0 0 0 0 0 0 0
0.22008890906230819 -6.042857087909472 3.4722189950752025 -179.999474791247 16.338109309308976 0.0036207439992289327 11.604928704664927 -37.79390171308973 0.016839356621274084 161.9975495967478 71.47310317961106 164.66620948688538 12.925904468612126 49.373612390120336 -5.633947269294282 0 0 0 -16.713037695932016 -36.51050113005968 4.473786832716841 -161.8603367203522 71.94008023814895 -164.26504854189292 -19.46600368784253 47.38350002456748 0.6612072301430826 0 0 0 -0.2500633382130014 -10.097713366493098 0.023244662873902557 -0.004129744036299706 26.860456951104496 -0.02201526749131986 0 0 0 -4.779229046087433 -2.537289553177543 -28.835046511833596 -34.88027551525906 -16.901090427687606 -17.4477251077248 -47.92660253078514 10.402963684098843 -54.24937258462208 -25.306734784431512 14.266596460621466 59.49912275478176 0 0 0 0 0 0 0 0 0 0 0 0 0 0 0 0 0 0 0 0 0 0 0 0 0 0 0 0 0 0 0 0 0 0 0 0 0 0 0 0 0 0 0 0 0 0 0.0603176184749914 0 -0.11515373915728888 -3.3678197114512263 -0.4161530499718412 0 0 0 0 0 0 0 0 0 0.08392094569431176 -4.5354201771709794 26.819425359915872 36.94658578900608 -18.12818822030663 16.803521223468117 52.05532055471619 2.8645951202329547 55.509353394848574 34.2092048202148 -43.11094234169898 -55.83458365417143 0 0 0 0 0 0 0 0 0 0 0 0 0 0 0 0 0 0 0 0 0 0 0 0 0 0 0 0 0 0 0 0 0 0 0 0 0 0 0 0 0 0 0 0 0
0.22008890906230819 -6.040797177227198 3.449914792152853 -179.99955746805279 15.224977310428677 0.0033042133185475107 11.366203004153482 -36.33778627826728 0.3234292159544921 161.70172559596077 71.7770491086534 164.3703623423575 12.925904468612126 49.373612390120336 -5.6339485741910424 0 0 0 -16.33440993782305 -35.09102889250692 4.036143171927751 -161.54696808309032 72.24245085631625 -163.95377064145418 -19.46600368784253 47.38350002456748 0.6612072301430826 0 0 0 -0.24955928340282935 -9.486179093324862 0.02049282267407199 -0.003885264114528305 25.635323407276804 -0.02206654616287586 0 0 0 -6.586310972790629 -0.9865962623791938 -28.241399696088035 -34.88027551525906 -16.901090427687606 -17.4477251077248 -47.326233116652844 11.180398081742055 -53.57364018206373 -25.912237805723198 12.879696463911413 60.48822541921752 0 0 0 0 0 0 0 0 0 0 0 0 0 0 0 0 0 0 0 0 0 0 0 0 0 0 0 0 0 0 0 0 0 0 0 0 0 0 0 0 0 0 0 0 0 0 -0.14912938480090815 0 -0.1327799415780242 -3.8500494206381783 -0.47452272644495863 0 0 0 0 0 0 0 0 0 1.6260819245827953 -2.977291759194315 26.270036932871058 36.94658578900608 -18.12818822030663 16.803521223468117 51.337008112733834 3.803295416533056 54.624871822646156 36.167304382546 -44.00252798891181 -56.97333002129092 0 0 0 0 0 0 0 0 0 0 0 0 0 0 0 0 0 0 0 0 0 0 0 0 0 0 0 0 0 0 0 0 0 0 0 0 0 0 0 0 0 0 0 0 0
